# xmcd
#
# Track frame offsets: 
#        150
#        12156
#        24072
#        36267
#        50068
#        60662
#        73869
#        86845
#        100440
#        111030
#        120470
#        132923
#
# Disc length: 1905 seconds
#
# Revision: 0
# Processed by: cddbd v1.5.2PL0 Copyright (c) Steve Scherf et al.
# Submitted via: ExactAudioCopy v0.95b3
#
DISCID=a0076f0c
DTITLE=Brenda Lee  - Sings Top Teen Hits
DYEAR=1900
DGENRE=
TTITLE0=Dancing In The Streets
TTITLE1=The Crying Game
TTITLE2=Thanks A Lot
TTITLE3=Let It Be Me
TTITLE4=He Loves You
TTITLE5=Snap Your Fingers
TTITLE6=Wishin' and Hopin'
TTITLE7=Funny How Time Slips Away
TTITLE8=Is It True
TTITLE9=Can't Buy Me Love
TTITLE10=Always Something There To Remind Me
TTITLE11=When You Loved Me
EXTD=
EXTT0=
EXTT1=
EXTT2=
EXTT3=
EXTT4=
EXTT5=
EXTT6=
EXTT7=
EXTT8=
EXTT9=
EXTT10=
EXTT11=
PLAYORDER=
